<?xml version="1.0" standalone="no"?>
<!DOCTYPE svg PUBLIC "-//W3C//DTD SVG 20010904//EN"
 "http://www.w3.org/TR/2001/REC-SVG-20010904/DTD/svg10.dtd">
<svg version="1.0" xmlns="http://www.w3.org/2000/svg"
 width="1200.000000pt" height="2654.000000pt" viewBox="0 0 1200.000000 2654.000000"
 preserveAspectRatio="xMidYMid meet">

<g transform="translate(0.000000,2654.000000) scale(0.100000,-0.100000)"
fill="#000000" stroke="none">
<path d="M11195 26474 c-27 -14 -3167 -3312 -3185 -3345 -4 -8 -153 -574 -330
-1259 -177 -685 -323 -1246 -325 -1248 -1 -1 -234 2 -516 9 -771 18 -1879 5
-2669 -31 -1936 -88 -3411 -302 -3930 -571 -95 -49 -136 -80 -178 -133 -31
-40 -30 -111 1 -154 215 -291 1530 -545 3452 -667 834 -52 1439 -69 2485 -69
1751 0 3122 79 4305 249 1779 255 2163 639 950 950 -576 148 -1613 287 -2575
346 -107 7 -199 16 -204 20 -4 4 108 478 250 1054 l259 1047 1465 1547 c806
851 1478 1562 1493 1581 25 29 28 40 23 73 -27 165 -302 463 -522 564 -113 52
-197 64 -249 37z m-4085 -6804 c-12 -40 14 -64 95 -89 126 -39 202 -46 475
-46 237 1 276 3 370 24 130 28 181 54 192 99 10 37 9 37 51 16 198 -100 42
-226 -338 -275 -127 -16 -440 -16 -570 0 -245 31 -425 106 -425 177 0 31 35
71 88 99 64 33 73 32 62 -5z"/>
<path d="M116 19338 c7 -48 694 -6384 694 -6405 1 -10 25 54 54 142 285 850
736 1616 1261 2140 799 799 1571 842 2111 116 88 -117 122 -189 135 -285 20
-151 -11 -278 -90 -356 -76 -75 -162 -89 -247 -40 -63 36 -117 105 -232 300
-134 228 -244 324 -399 349 -104 17 -237 -10 -358 -72 -141 -71 -377 -276
-544 -471 -395 -461 -781 -1165 -1001 -1826 -139 -415 -200 -755 -186 -1025
14 -259 77 -409 198 -469 124 -62 285 -17 520 146 263 182 652 580 885 905
138 194 152 224 301 673 77 228 149 434 161 457 66 130 194 198 319 172 76
-15 143 -81 162 -159 27 -112 -6 -378 -76 -607 -29 -96 -175 -499 -233 -643
-57 -141 -280 -871 -495 -1625 -126 -439 -160 -518 -265 -625 -50 -51 -77 -71
-110 -80 -101 -27 -188 26 -210 128 -14 68 -14 255 0 324 32 154 273 963 356
1196 3 10 -47 -39 -113 -107 -300 -314 -612 -559 -879 -693 -275 -138 -526
-155 -740 -49 -44 22 -81 38 -83 36 -8 -8 379 -4042 391 -4080 16 -53 80 -100
242 -180 606 -296 1875 -564 3120 -659 377 -29 551 -37 985 -43 781 -10 1488
32 2230 133 993 135 1931 378 2355 611 87 48 165 120 165 154 0 13 126 1109
279 2434 153 1326 277 2411 276 2413 -1 1 -49 -41 -106 -94 -460 -424 -775
-636 -1055 -711 -87 -23 -119 -26 -264 -27 -137 -1 -174 2 -220 18 -160 55
-244 155 -257 304 -16 198 97 388 572 962 331 400 429 554 409 643 -12 58 -94
78 -213 53 -228 -48 -500 -270 -773 -633 -195 -259 -319 -483 -528 -948 -240
-534 -304 -694 -541 -1340 -55 -148 -111 -301 -125 -340 -60 -161 -160 -292
-257 -339 -137 -66 -309 -29 -358 77 -29 65 -26 200 7 313 44 152 145 393 364
864 246 529 440 957 440 972 0 5 -37 -24 -81 -66 -347 -326 -699 -523 -969
-543 -242 -17 -387 85 -447 314 l-8 33 -90 -65 c-111 -79 -272 -170 -385 -218
-292 -123 -506 -68 -573 147 -18 59 -21 93 -21 206 1 79 8 172 17 224 9 49 15
92 13 94 -3 2 -11 -10 -20 -26 -33 -64 -174 -241 -255 -322 -217 -214 -461
-344 -715 -379 -440 -61 -680 161 -627 581 41 328 259 940 581 1628 102 218
149 281 245 326 56 27 157 33 216 12 79 -26 138 -89 154 -165 13 -62 -23 -152
-194 -487 -93 -182 -190 -380 -216 -440 -147 -346 -215 -654 -171 -771 24 -61
47 -75 126 -75 119 0 231 42 354 134 165 121 345 333 499 588 113 187 277 527
331 688 133 393 218 524 353 546 100 16 206 -60 238 -171 35 -120 16 -189
-190 -670 -211 -493 -285 -713 -314 -928 -23 -168 -7 -227 69 -247 104 -28
312 56 516 208 93 69 97 73 113 132 54 197 83 271 901 2335 248 627 466 1166
482 1198 88 166 292 224 436 125 77 -53 107 -162 78 -279 -9 -35 -64 -171
-122 -302 -211 -480 -593 -1404 -962 -2327 -285 -713 -312 -793 -315 -920 -2
-59 2 -82 17 -104 17 -27 21 -28 78 -23 185 17 608 324 1085 789 l133 128 46
148 c139 439 263 694 371 759 70 42 204 24 256 -35 26 -29 46 -89 47 -139 0
-42 -33 -253 -46 -288 -4 -11 51 36 122 105 259 251 462 391 679 468 94 33
268 41 369 18 158 -37 280 -128 339 -253 29 -61 32 -77 32 -158 -1 -119 -24
-207 -94 -352 -122 -251 -269 -455 -641 -888 -175 -203 -230 -274 -230 -297 0
-30 21 -65 47 -77 120 -55 328 91 1126 784 169 148 196 175 201 205 7 40 756
6982 756 7005 0 13 -7 12 -41 -6 -64 -32 -211 -88 -334 -126 -750 -232 -2104
-397 -3875 -473 -1037 -44 -2492 -38 -3595 15 -1834 89 -3278 301 -3844 566
-46 21 -85 39 -87 39 -1 0 -1 -15 2 -32z"/>
<path d="M1692 6291 c2 -5 173 -298 380 -652 l377 -644 151 -2065 c83 -1136
156 -2081 162 -2100 101 -320 947 -599 2153 -709 385 -35 619 -45 1090 -45
445 0 666 9 1035 40 1034 87 1845 310 2118 583 27 27 60 71 73 97 22 47 25 98
142 2143 l120 2096 359 629 c197 346 357 630 355 632 -2 2 -34 -9 -73 -25
-463 -189 -1378 -397 -2214 -505 -614 -80 -1114 -114 -1775 -123 -926 -12
-1759 49 -2641 192 -666 108 -1380 287 -1757 440 -32 13 -57 20 -55 16z"/>
</g>
</svg>
